<?xml version="1.0" encoding="utf-8"?>
<!-- Generator: Adobe Illustrator 24.1.2, SVG Export Plug-In . SVG Version: 6.00 Build 0)  -->
<svg version="1.1" id="Layer_1" xmlns="http://www.w3.org/2000/svg" xmlns:xlink="http://www.w3.org/1999/xlink" x="0px" y="0px"
	 viewBox="0 0 247.2 53.5" style="enable-background:new 0 0 247.2 53.5;" xml:space="preserve">
<style type="text/css">
	.st0{fill:none;}
	.st1{fill:#273476;}
	.st2{fill:#002169;}
</style>
<g>
	<path class="st0" d="M216.5,19.1h-4.2v-1.4h-0.1c-0.7,1.3-2.4,1.9-4.1,1.9c-4.4,0-7-3.3-7-7.1c0-4.4,3.3-7.1,7-7.1
		c2.3,0,3.6,1.1,4.1,1.9h0.1V5.8h4.2V19.1z"/>
	<path class="st1" d="M44.5,29.3L32,16.6c-0.3-0.3-0.4-0.7,0.1-0.7h9.5c0,0,0.5,0.2,1.1-0.2c0.7-0.4,0.5-2,0-2.7
		c-0.5-0.7-1.6-1-2.2-1.5c-0.6-0.5-0.7-1.4-1.4-2C38.3,9,35.2,8.4,34,8.2c-1.2-0.3-1.2-0.8-1.7-1.4c-4-5.2-10.7-6.8-15-6.8h-17
		C-0.3,0,0,2.3,0.8,2.3h9.5c0.5,0,5.5,0.7,7.4,3.2c1.9,2.5,1.2,4.7-1.6,7.1c-2.7,2.4-6.5,2-7.2,2c-1,0-0.6,1.8,0.5,1.8h10.2
		c0.7,0,3.3,0.1,5.3,2.2c3.1,3.3,1.8,5.2-0.2,7.4c-2,2.2-6.6,2.5-7.6,2.6c-1,0.1-0.2,1.5,0.5,1.5h26.6
		C44.7,30.1,44.8,29.7,44.5,29.3z M31.7,13.5l1.7-3.4c2.2,0,3.7,0.5,4.4,0.9c0.7,0.5,0.7,1.2,1,1.5c0.3,0.3,0.9,0.5,1.7,0.7
		c0.8,0.3,0.7,1-0.1,1H32C31.6,14.2,31.5,13.8,31.7,13.5z"/>
	<path class="st1" d="M79.6,52.8L67.2,40.1c-0.3-0.3-0.4-0.7,0.1-0.7h9.5c0,0,0.5,0.2,1.1-0.2c0.7-0.4,0.5-2,0-2.7
		c-0.5-0.7-1.6-1-2.2-1.5c-0.6-0.5-0.7-1.4-1.4-2c-0.7-0.6-3.8-1.2-5.1-1.4c-1.2-0.3-1.2-0.8-1.7-1.4c-4-5.2-10.7-6.8-15-6.8h-17
		c-0.6,0-0.3,2.3,0.5,2.3h9.5c0.5,0,5.5,0.7,7.4,3.2c1.9,2.5,1.2,4.7-1.6,7.1c-2.7,2.4-6.5,2-7.2,2c-1,0-0.6,1.8,0.5,1.8h10.2
		c0.7,0,3.3,0.1,5.3,2.2c3.1,3.3,1.8,5.2-0.2,7.4c-2,2.2-6.6,2.5-7.6,2.6c-1,0.1-0.2,1.5,0.5,1.5h26.6C79.9,53.5,80,53.1,79.6,52.8z
		 M66.9,37l1.7-3.4c2.2,0,3.7,0.5,4.4,0.9c0.7,0.5,0.7,1.2,1,1.5c0.3,0.3,0.9,0.5,1.7,0.7c0.8,0.3,0.7,1-0.1,1h-8.4
		C66.8,37.7,66.7,37.3,66.9,37z"/>
	<rect x="65.9" y="0.8" class="st2" width="4.3" height="18.3"/>
	<rect x="65.9" y="0.8" class="st1" width="4.3" height="18.3"/>
	<path class="st2" d="M85.5,19.1h-4v-1.4h-0.1c-0.9,1.7-2.6,1.8-3.6,1.8c-0.9,0-2.9-0.2-4.1-1.7c-1.1-1.3-1.3-2.3-1.3-4.1v-8h4.2
		v7.4c0,0.9,0,2.7,2.2,2.7c1.2,0,2.4-0.6,2.4-2.7V5.8h4.2V19.1z"/>
	<path class="st1" d="M76.7,13.1c0,0.9,0,2.7,2.2,2.7c1.2,0,2.4-0.6,2.4-2.7V5.8h4.2v13.3h-4v-1.4h-0.1c-0.9,1.7-2.6,1.8-3.6,1.8
		c-0.9,0-2.9-0.2-4.1-1.7c-1.1-1.3-1.3-2.3-1.3-4.1v-8h4.2"/>
	<path class="st1" d="M101.8,12.6c0-4.1-3.1-7.3-7.4-7.3c-4.3,0-7.3,3.4-7.3,7.2c0,4,3.4,7.1,7.4,7.1c1.4,0,2.8-0.4,4-1.2
		c1.2-0.8,2.5-1.9,3-3l-4.6,0c-0.4,0.3-1.1,0.8-2.4,0.8c-1.6,0-3-0.9-3.3-2.5h10.5C101.8,13.3,101.8,13.1,101.8,12.6z M91.3,11
		c0.2-0.8,1-2.3,3.2-2.3c2.2,0,3,1.5,3.2,2.3H91.3z"/>
	<path class="st0" d="M109.4,1.3h5.9c3.3,0,4.5,0.4,5.7,1.3c1.5,1.2,2.3,3,2.3,4.8c0,2-1.1,5-4.6,5.6l5.1,6h-5.4l-4.3-5.7h0v5.7
		h-4.6V1.3z"/>
	<rect x="124.9" y="1.3" class="st1" width="4.2" height="3"/>
	<rect x="124.9" y="1.3" class="st0" width="4.2" height="3"/>
	<rect x="124.9" y="6.3" class="st1" width="4.2" height="12.8"/>
	<rect x="124.9" y="6.3" class="st0" width="4.2" height="12.8"/>
	<path class="st0" d="M146,19.1h-4v-1.4H142c-0.4,0.6-1.4,1.9-4.2,1.9c-4.2,0-7-3.1-7-7.1c0-4.5,3.4-7.1,6.9-7.1
		c2.5,0,3.7,1.2,4.1,1.6V1.3h4.2V19.1z"/>
	<path class="st1" d="M141.8,1.3v5.6c-0.5-0.4-1.6-1.6-4.1-1.6c-3.6,0-6.9,2.6-6.9,7.1c0,4,2.8,7.1,7,7.1c2.8,0,3.8-1.3,4.2-1.9h0.1
		v1.4h4V1.3H141.8z M138.5,15.8c-2,0-3.5-1.4-3.5-3.4c0-1.5,1.1-3.3,3.6-3.3c2.3,0,3.5,1.7,3.5,3.3
		C142.1,13.8,141.1,15.8,138.5,15.8z"/>
	<path class="st0" d="M162.8,17.5c0,2-0.2,3.3-0.8,4.4c-1.1,1.7-3.6,3.1-7.1,3.1c-4.9,0-6.7-2.3-7-4.2l5.1,0c0.6,1.3,2.1,1,2.4,1
		c0.5,0,3.2-0.2,3.2-3.7v-0.4h-0.1c-0.4,0.8-1.6,1.9-3.8,1.9c-3.8,0-7.1-2.7-7.1-7c0-4.6,3.4-7.2,7.1-7.2c1.6,0,3.1,0.5,3.9,1.7h0.1
		V5.8h4.2V17.5z"/>
	<path class="st1" d="M158.6,5.8V7h-0.1c-0.8-1.2-2.3-1.7-3.9-1.7c-3.6,0-7.1,2.6-7.1,7.2c0,4.3,3.3,7,7.1,7c2.2,0,3.4-1.1,3.8-1.9
		h0.1V18c0,3.6-2.7,3.7-3.2,3.7c-0.3,0-1.8,0.3-2.4-1l-5.1,0c0.3,1.9,2.2,4.2,7,4.2c3.5,0,6-1.5,7.1-3.1c0.7-1.1,0.8-2.4,0.8-4.4
		V5.8H158.6z M155.2,15.8c-1.7,0-3.4-1.3-3.4-3.4c0-1.9,1.6-3.3,3.4-3.3c1.9,0,3.4,1.3,3.4,3.4C158.6,14.4,157.2,15.8,155.2,15.8z"
		/>
	<path class="st1" d="M212.3,5.8v1.4h-0.1c-0.5-0.8-1.8-1.9-4.1-1.9c-3.7,0-7,2.7-7,7.1c0,3.8,2.6,7.1,7,7.1c1.6,0,3.4-0.6,4.1-1.9
		h0.1v1.4h4.2V5.8H212.3z M208.8,15.8c-2.5,0-3.5-2.1-3.5-3.4c0-1.5,1.1-3.4,3.5-3.4c2.4,0,3.5,1.8,3.5,3.4
		C212.3,13.7,211.4,15.8,208.8,15.8z"/>
	<path class="st1" d="M218.8,5.8h3.9v1.4h0.1c0.4-0.6,1.3-1.9,3.8-1.9c1.3,0,2.8,0.5,3.6,1.2c0.8,0.6,1.6,1.7,1.6,4.3v8.3h-4.2v-7.3
		c0-0.9,0-2.8-2.2-2.8c-2.4,0-2.4,2-2.4,2.8v7.2h-4.2V5.8z"/>
	<path class="st0" d="M218.8,5.8h3.9v1.4h0.1c0.4-0.6,1.3-1.9,3.8-1.9c1.3,0,2.8,0.5,3.6,1.2c0.8,0.6,1.6,1.7,1.6,4.3v8.3h-4.2v-7.3
		c0-0.9,0-2.8-2.2-2.8c-2.4,0-2.4,2-2.4,2.8v7.2h-4.2V5.8z"/>
	<polygon class="st1" points="234.2,1.3 238.4,1.3 238.4,10.6 238.4,10.6 242.3,5.8 247.2,5.8 242,11.6 247.1,19.1 242.4,19.1 
		238.4,12.7 238.4,12.7 238.4,19.1 234.2,19.1 	"/>
	<polygon class="st0" points="234.2,1.3 238.4,1.3 238.4,10.6 238.4,10.6 242.3,5.8 247.2,5.8 242,11.6 247.1,19.1 242.4,19.1 
		238.4,12.7 238.4,12.7 238.4,19.1 234.2,19.1 	"/>
	<path class="st0" d="M102.2,48.6H98v-1.5H98c-0.7,1.3-2.4,2-4,2c-4.4,0-6.9-3.4-6.9-7.4c0-4.5,3.2-7.3,6.9-7.3c2.3,0,3.5,1.1,4,1.9
		H98v-1.5h4.1V48.6z"/>
	<path class="st1" d="M98,34.9v1.5H98c-0.5-0.8-1.8-1.9-4-1.9c-3.7,0-6.9,2.8-6.9,7.3c0,3.9,2.6,7.4,6.9,7.4c1.6,0,3.3-0.6,4-2H98
		v1.5h4.1V34.9H98z M94.6,45.3c-2.5,0-3.4-2.2-3.4-3.5c0-1.6,1-3.5,3.4-3.5c2.3,0,3.5,1.8,3.5,3.5C98,43.1,97.2,45.3,94.6,45.3z"/>
	<path class="st1" d="M103.9,34.9h3.8v1.5h0c0.4-0.7,1.3-1.9,3.7-1.9c1.3,0,2.8,0.5,3.5,1.2c0.7,0.6,1.6,1.7,1.6,4.4v8.6h-4.1v-7.5
		c0-1,0-2.8-2.2-2.8c-2.4,0-2.4,2-2.4,2.9v7.5h-4.1V34.9z"/>
	<path class="st0" d="M103.9,34.9h3.8v1.5h0c0.4-0.7,1.3-1.9,3.7-1.9c1.3,0,2.8,0.5,3.5,1.2c0.7,0.6,1.6,1.7,1.6,4.4v8.6h-4.1v-7.5
		c0-1,0-2.8-2.2-2.8c-2.4,0-2.4,2-2.4,2.9v7.5h-4.1V34.9z"/>
	<path class="st0" d="M132.7,48.6h-3.9v-1.5h0c-0.3,0.6-1.3,1.9-4.1,1.9c-4.2,0-6.9-3.2-6.9-7.4c0-4.7,3.3-7.3,6.8-7.3
		c2.4,0,3.6,1.2,4,1.6v-5.7h4.1V48.6z"/>
	<path class="st1" d="M128.5,30.3v5.7c-0.4-0.4-1.6-1.6-4-1.6c-3.5,0-6.8,2.7-6.8,7.3c0,4.1,2.7,7.4,6.9,7.4c2.8,0,3.8-1.4,4.1-1.9
		h0v1.5h3.9V30.3H128.5z M125.2,45.2c-1.9,0-3.4-1.4-3.4-3.5c0-1.6,1.1-3.4,3.5-3.4c2.3,0,3.5,1.8,3.5,3.4
		C128.8,43.1,127.8,45.2,125.2,45.2z"/>
	<polygon class="st1" points="144.9,34.4 141.3,34.4 141.3,30.3 153.2,30.3 153.2,34.4 149.6,34.4 149.6,48.6 144.9,48.6 	"/>
	<polygon class="st0" points="144.9,34.4 141.3,34.4 141.3,30.3 153.2,30.3 153.2,34.4 149.6,34.4 149.6,48.6 144.9,48.6 	"/>
	<path class="st1" d="M154.2,34.9h4.1v1.5h0.1c0.4-0.7,1.1-1.9,3.6-1.9v4.1c-2,0-3.4,0.4-3.4,2.5v7.6h-4.3V34.9z"/>
	<path class="st0" d="M154.2,34.9h4.1v1.5h0.1c0.4-0.7,1.1-1.9,3.6-1.9v4.1c-2,0-3.4,0.4-3.4,2.5v7.6h-4.3V34.9z"/>
	<path class="st1" d="M177,48.6h-4.1v-1.5h-0.1c-0.9,1.8-2.7,1.9-3.7,1.9c-0.9,0-3-0.2-4.2-1.7c-1.1-1.4-1.3-2.4-1.3-4.2v-8.2h4.3
		v7.6c0,0.9,0,2.7,2.3,2.7c1.2,0,2.5-0.6,2.5-2.8v-7.6h4.3V48.6z"/>
	<path class="st0" d="M177,48.6h-4.1v-1.5h-0.1c-0.9,1.8-2.7,1.9-3.7,1.9c-0.9,0-3-0.2-4.2-1.7c-1.1-1.4-1.3-2.4-1.3-4.2v-8.2h4.3
		v7.6c0,0.9,0,2.7,2.3,2.7c1.2,0,2.5-0.6,2.5-2.8v-7.6h4.3V48.6z"/>
	<path class="st1" d="M185.8,38.8c0-0.3-0.1-1-1.4-1c-0.9,0-1.2,0.5-1.2,0.9c0,0.7,1.1,1.2,2.2,1.5c2.4,0.6,5,1.3,5,4.3
		c0,2.9-2.7,4.7-5.9,4.7c-2.2,0-5.5-0.9-5.9-4.6h4.3c0.2,1.3,1.5,1.3,1.6,1.3c0.7,0,1.5-0.4,1.5-1.1c0-1.1-1.1-1.2-3.8-2.2
		c-1.9-0.6-3.4-1.7-3.4-3.6c0-2.7,2.6-4.5,5.6-4.5c1.9,0,5.2,0.7,5.5,4.3H185.8z"/>
	<path class="st0" d="M185.8,38.8c0-0.3-0.1-1-1.4-1c-0.9,0-1.2,0.5-1.2,0.9c0,0.7,1.1,1.2,2.2,1.5c2.4,0.6,5,1.3,5,4.3
		c0,2.9-2.7,4.7-5.9,4.7c-2.2,0-5.5-0.9-5.9-4.6h4.3c0.2,1.3,1.5,1.3,1.6,1.3c0.7,0,1.5-0.4,1.5-1.1c0-1.1-1.1-1.2-3.8-2.2
		c-1.9-0.6-3.4-1.7-3.4-3.6c0-2.7,2.6-4.5,5.6-4.5c1.9,0,5.2,0.7,5.5,4.3H185.8z"/>
	<polygon class="st1" points="197.3,34.9 199.3,34.9 199.3,38 197.3,38 197.3,48.6 192.9,48.6 192.9,38 190.8,38 190.8,34.9 
		192.9,34.9 192.9,30.3 197.3,30.3 	"/>
	<polygon class="st0" points="197.3,34.9 199.3,34.9 199.3,38 197.3,38 197.3,48.6 192.9,48.6 192.9,38 190.8,38 190.8,34.9 
		192.9,34.9 192.9,30.3 197.3,30.3 	"/>
	<path class="st1" d="M224.6,41.8c-1.1,4.3-4.8,7.2-9.3,7.2c-5.7,0-9.7-4.6-9.7-9.5c0-4.7,3.6-9.5,9.6-9.5c5.7,0,8.8,4.4,9.3,7.3
		h-4.9c-0.5-1.4-1.9-3.2-4.4-3.2c-3.1,0-4.9,2.7-4.9,5.3c0,2.8,1.9,5.4,4.9,5.4c2.9,0,4.1-2.5,4.4-3.1H224.6z"/>
	<path class="st0" d="M224.6,41.8c-1.1,4.3-4.8,7.2-9.3,7.2c-5.7,0-9.7-4.6-9.7-9.5c0-4.7,3.6-9.5,9.6-9.5c5.7,0,8.8,4.4,9.3,7.3
		h-4.9c-0.5-1.4-1.9-3.2-4.4-3.2c-3.1,0-4.9,2.7-4.9,5.3c0,2.8,1.9,5.4,4.9,5.4c2.9,0,4.1-2.5,4.4-3.1H224.6z"/>
	<path class="st0" d="M233.2,34.4c5,0,7.4,3.9,7.4,7.3c0,3.4-2.4,7.3-7.4,7.3c-5,0-7.4-3.9-7.4-7.3
		C225.8,38.4,228.2,34.4,233.2,34.4z"/>
	<path class="st1" d="M233.2,34.4c-5,0-7.4,3.9-7.4,7.3c0,3.4,2.4,7.3,7.4,7.3c5,0,7.4-3.9,7.4-7.3
		C240.6,38.4,238.2,34.4,233.2,34.4z M233.2,45.2c-1.8,0-3.3-1.5-3.3-3.5c0-2,1.5-3.5,3.3-3.5c1.8,0,3.3,1.5,3.3,3.5
		C236.5,43.8,235,45.2,233.2,45.2z"/>
	<rect x="242" y="44.4" class="st1" width="4.3" height="4.2"/>
	<rect x="242" y="44.4" class="st0" width="4.3" height="4.2"/>
	<path class="st1" d="M179.5,12.6c0-4.1-3.1-7.3-7.4-7.3c-4.3,0-7.3,3.4-7.3,7.2c0,4,3.4,7.1,7.4,7.1c1.4,0,2.8-0.4,4-1.2
		c1.2-0.8,2.5-1.9,3-3l-4.6,0c-0.4,0.3-1.1,0.8-2.4,0.8c-1.6,0-3-0.9-3.3-2.5h10.5C179.4,13.3,179.5,13.1,179.5,12.6z M168.9,11
		c0.2-0.8,1-2.3,3.2-2.3c2.2,0,3,1.5,3.2,2.3H168.9z"/>
	<path class="st2" d="M164.2,12.5"/>
	<path class="st2" d="M172.1,4.7"/>
	<path class="st1" d="M61,9.3c1.6-0.8,2.2-2.3,2.2-3.7c0-1.1-0.3-2.2-1.1-3c-1.4-1.5-2.9-1.8-6.2-1.8H50v18.3h6.1
		c3.3,0,4.5-0.2,6.3-1.6c1.2-0.9,1.8-2.5,1.8-4C64.2,12.8,64.1,10.3,61,9.3z M54.2,4.9h2.1c0.8,0,2.1,0,2.1,1.4
		c0,1.5-1.4,1.5-2.1,1.5h-2.1V4.9z M56.9,15h-2.7v-3.3h2.7c0.8,0,2.4,0,2.4,1.6C59.4,15,57.5,15,56.9,15z"/>
	<path class="st1" d="M197,9.6c1.5-0.8,2.2-2.2,2.2-3.6c0-1-0.3-2.1-1.1-2.9c-1.4-1.4-2.8-1.7-6-1.7h-5.7v17.8h5.9
		c3.2,0,4.4-0.2,6.1-1.5c1.1-0.9,1.7-2.4,1.7-3.9C200.1,13,200,10.6,197,9.6z M190.5,5.1h2.1c0.8,0,2.1,0,2.1,1.4
		c0,1.5-1.4,1.5-2.1,1.5h-2.1V5.1z M193.2,15.2h-2.6v-3.3h2.6c0.8,0,2.4,0,2.4,1.6C195.6,15.2,193.8,15.2,193.2,15.2z"/>
	<path class="st1" d="M118.7,13c3.5-0.6,4.6-3.6,4.6-5.6c0-1.8-0.8-3.7-2.3-4.8c-1.2-0.9-2.5-1.3-5.7-1.3h-5.9v17.8h4.6v-5.7h0
		l4.3,5.7h5.4L118.7,13z M115.6,10.3h-1.7V5.3h1.7c1.8,0,3.1,0.8,3.1,2.4C118.7,8.6,118.4,10.3,115.6,10.3z"/>
</g>
</svg>
